<svg width="52" height="52" viewBox="0 0 52 52" fill="none" xmlns="http://www.w3.org/2000/svg">
<mask id="path-1-inside-1_250_6955" fill="white">
<path d="M40.1717 32.6138C40.1717 32.6138 39.4897 27.1256 38.6971 23.6793C37.6568 19.156 36.7916 16.6734 35.0931 12.354C33.3945 8.03467 30.0176 1.60742 30.0176 1.60742L46.6267 3.23127C46.6267 3.23127 49.0206 10.615 49.7843 15.5816C50.5481 20.5481 50.419 27.5648 50.419 27.5648L40.1717 32.6138Z"/>
</mask>
<path d="M38.6971 23.6793L58.1882 19.1966L58.1882 19.1966L38.6971 23.6793ZM40.1717 32.6138L20.3243 35.0801L23.7914 62.9806L49.0113 50.5543L40.1717 32.6138ZM50.419 27.5648L59.2586 45.5053L70.1914 40.1185L70.4156 27.9326L50.419 27.5648ZM46.6267 3.23127L65.6518 -2.93682L61.6115 -15.3991L48.5728 -16.6738L46.6267 3.23127ZM30.0176 1.60742L31.9637 -18.2977L-4.92835 -21.9045L12.3126 10.9098L30.0176 1.60742ZM35.0931 12.354L16.4804 19.6732L16.4804 19.6732L35.0931 12.354ZM38.6971 23.6793L19.2059 28.1619C19.4196 29.0912 19.6961 30.6886 19.9515 32.3966C20.0684 33.1782 20.1644 33.8707 20.2306 34.3642C20.2636 34.6094 20.2886 34.8015 20.3047 34.9262C20.3127 34.9885 20.3184 35.0337 20.3218 35.06C20.3234 35.0732 20.3245 35.0816 20.3249 35.085C20.3251 35.0867 20.3252 35.0872 20.3251 35.0864C20.325 35.086 20.325 35.0853 20.3248 35.0842C20.3248 35.0837 20.3247 35.0831 20.3246 35.0824C20.3246 35.0821 20.3245 35.0815 20.3245 35.0813C20.3244 35.0807 20.3243 35.0801 40.1717 32.6138C60.019 30.1474 60.0189 30.1468 60.0188 30.1461C60.0188 30.1459 60.0187 30.1452 60.0187 30.1446C60.0185 30.1436 60.0184 30.1425 60.0182 30.1413C60.018 30.139 60.0176 30.1363 60.0172 30.1332C60.0165 30.1271 60.0155 30.1196 60.0144 30.1109C60.0122 30.0933 60.0094 30.0705 60.0058 30.0426C59.9988 29.9869 59.9891 29.9108 59.9769 29.8163C59.9526 29.6274 59.9182 29.3638 59.8748 29.0407C59.7884 28.3974 59.6644 27.5025 59.5117 26.4813C59.2279 24.5836 58.7671 21.7137 58.1882 19.1966L38.6971 23.6793ZM40.1717 32.6138L49.0113 50.5543L59.2586 45.5053L50.419 27.5648L41.5794 9.62426L31.3321 14.6733L40.1717 32.6138ZM46.6267 3.23127L48.5728 -16.6738L31.9637 -18.2977L30.0176 1.60742L28.0715 21.5125L44.6806 23.1364L46.6267 3.23127ZM50.419 27.5648C70.4156 27.9326 70.4156 27.9314 70.4156 27.9302C70.4156 27.9297 70.4157 27.9284 70.4157 27.9275C70.4157 27.9257 70.4157 27.9238 70.4158 27.9218C70.4159 27.9177 70.4159 27.9132 70.416 27.9083C70.4162 27.8984 70.4164 27.8868 70.4166 27.8735C70.417 27.8469 70.4176 27.8134 70.4181 27.7733C70.4193 27.6931 70.4207 27.5865 70.422 27.4558C70.4246 27.1945 70.4271 26.8349 70.4272 26.3954C70.4274 25.5212 70.4183 24.306 70.381 22.9036C70.3114 20.288 70.1283 16.2896 69.5519 12.5417L49.7843 15.5816L30.0167 18.6214C30.2041 19.84 30.3383 21.8332 30.3951 23.9676C30.421 24.9403 30.4273 25.7896 30.4272 26.3862C30.4271 26.6821 30.4255 26.9095 30.424 27.0514C30.4233 27.1221 30.4227 27.1711 30.4223 27.1962C30.4221 27.2087 30.422 27.2152 30.422 27.2155C30.422 27.2156 30.422 27.2141 30.4221 27.211C30.4221 27.2095 30.4222 27.2075 30.4222 27.2052C30.4222 27.204 30.4222 27.2027 30.4223 27.2013C30.4223 27.2006 30.4223 27.1995 30.4223 27.1992C30.4223 27.1981 30.4224 27.1969 50.419 27.5648ZM49.7843 15.5816L69.5519 12.5417C68.9767 8.80078 67.909 4.74833 67.1718 2.12789C66.7729 0.710018 66.4033 -0.523196 66.1318 -1.40753C65.9954 -1.85202 65.8818 -2.21443 65.7994 -2.47488C65.7581 -2.60526 65.7246 -2.71053 65.6997 -2.78824C65.6872 -2.8271 65.6769 -2.85912 65.6689 -2.88397C65.6649 -2.8964 65.6614 -2.90704 65.6586 -2.91586C65.6572 -2.92027 65.6559 -2.92423 65.6548 -2.92772C65.6542 -2.92947 65.6537 -2.9311 65.6532 -2.93262C65.6529 -2.93338 65.6526 -2.93443 65.6525 -2.93481C65.6521 -2.93583 65.6518 -2.93682 46.6267 3.23127C27.6016 9.39936 27.6013 9.39842 27.601 9.39751C27.6009 9.39725 27.6006 9.39636 27.6005 9.39583C27.6001 9.39476 27.5998 9.3938 27.5995 9.39295C27.599 9.39125 27.5986 9.38998 27.5983 9.38914C27.5977 9.38746 27.5978 9.38748 27.5983 9.38917C27.5994 9.39256 27.6026 9.40262 27.6079 9.41904C27.6184 9.45192 27.637 9.51014 27.6627 9.59136C27.7142 9.75411 27.7936 10.0074 27.8935 10.3327C28.0947 10.988 28.3713 11.9111 28.6664 12.96C29.3171 15.2731 29.8282 17.3958 30.0167 18.6214L49.7843 15.5816ZM30.0176 1.60742C12.3126 10.9098 12.3123 10.9092 12.312 10.9086C12.3119 10.9085 12.3117 10.908 12.3115 10.9077C12.3112 10.907 12.3109 10.9065 12.3107 10.9061C12.3102 10.9053 12.31 10.9048 12.3099 10.9047C12.3099 10.9045 12.3106 10.9059 12.312 10.9087C12.3149 10.9143 12.3209 10.9257 12.3299 10.9428C12.3477 10.9769 12.3771 11.0333 12.417 11.1101C12.4968 11.2637 12.6177 11.4975 12.7702 11.7953C13.0767 12.3938 13.5026 13.235 13.974 14.1926C14.9854 16.2478 15.9488 18.3213 16.4804 19.6732L35.0931 12.354L53.7057 5.03484C52.5388 2.06743 50.9644 -1.2324 49.8628 -3.47069C49.2775 -4.6598 48.7531 -5.69533 48.3733 -6.43696C48.1827 -6.80925 48.0265 -7.11131 47.915 -7.32602C47.8592 -7.43347 47.8144 -7.51932 47.782 -7.58145C47.7657 -7.61252 47.7526 -7.63769 47.7426 -7.65669C47.7376 -7.66618 47.7335 -7.67414 47.7301 -7.68053C47.7284 -7.68372 47.727 -7.68652 47.7257 -7.68892C47.7251 -7.69013 47.7245 -7.69123 47.724 -7.69223C47.7237 -7.69273 47.7234 -7.69341 47.7232 -7.69366C47.7229 -7.69431 47.7226 -7.69494 30.0176 1.60742ZM35.0931 12.354L16.4804 19.6732C17.9508 23.4123 18.4573 24.9068 19.2059 28.1619L38.6971 23.6793L58.1882 19.1966C56.8563 13.4053 55.6324 9.93444 53.7057 5.03484L35.0931 12.354Z" fill="white" mask="url(#path-1-inside-1_250_6955)"/>
<mask id="path-3-inside-2_250_6955" fill="white">
<path d="M19.1281 39.737C19.1281 39.737 24.6229 39.111 28.0772 38.3535C32.6108 37.3594 35.1021 36.5196 39.4386 34.8651C43.775 33.2107 50.2363 29.8994 50.2363 29.8994L48.4433 46.4911C48.4433 46.4911 41.0356 48.8096 36.0615 49.5227C31.0874 50.2358 24.0725 50.0352 24.0725 50.0352L19.1281 39.737Z"/>
</mask>
<path d="M28.0772 38.3535L32.361 57.8894L32.361 57.8894L28.0772 38.3535ZM19.1281 39.737L16.8641 19.8656L-11.0702 23.0482L1.09847 48.3934L19.1281 39.737ZM24.0725 50.0352L6.04282 58.6916L11.3179 69.6787L23.5008 70.0271L24.0725 50.0352ZM48.4433 46.4911L54.4172 65.5781L66.92 61.6649L68.3276 48.6399L48.4433 46.4911ZM50.2363 29.8994L70.1206 32.0482L74.1032 -4.80512L41.1149 12.1006L50.2363 29.8994ZM39.4386 34.8651L32.3094 16.1789L32.3094 16.1789L39.4386 34.8651ZM28.0772 38.3535L23.7934 18.8177C22.862 19.0219 21.2618 19.2821 19.5513 19.5201C18.7686 19.629 18.0752 19.718 17.581 19.7792C17.3355 19.8096 17.1432 19.8327 17.0182 19.8475C16.9559 19.8549 16.9106 19.8602 16.8843 19.8632C16.8711 19.8648 16.8627 19.8657 16.8593 19.8661C16.8575 19.8663 16.8571 19.8664 16.8579 19.8663C16.8583 19.8662 16.859 19.8662 16.86 19.866C16.8606 19.866 16.8612 19.8659 16.8618 19.8658C16.8622 19.8658 16.8628 19.8657 16.8629 19.8657C16.8635 19.8656 16.8641 19.8656 19.1281 39.737C21.3921 59.6085 21.3927 59.6084 21.3934 59.6083C21.3937 59.6083 21.3944 59.6082 21.3949 59.6082C21.3959 59.608 21.397 59.6079 21.3982 59.6078C21.4006 59.6075 21.4033 59.6072 21.4063 59.6068C21.4125 59.6061 21.4199 59.6053 21.4287 59.6043C21.4463 59.6023 21.4691 59.5996 21.497 59.5964C21.5529 59.5899 21.629 59.581 21.7237 59.5698C21.9128 59.5474 22.1767 59.5156 22.5003 59.4755C23.1443 59.3957 24.0405 59.2808 25.0633 59.1385C26.9637 58.8741 29.8381 58.4426 32.361 57.8894L28.0772 38.3535ZM19.1281 39.737L1.09847 48.3934L6.04282 58.6916L24.0725 50.0352L42.1021 41.3789L37.1577 31.0807L19.1281 39.737ZM48.4433 46.4911L68.3276 48.6399L70.1206 32.0482L50.2363 29.8994L30.3521 27.7506L28.5591 44.3423L48.4433 46.4911ZM24.0725 50.0352C23.5008 70.0271 23.5021 70.0271 23.5033 70.0271C23.5038 70.0272 23.505 70.0272 23.5059 70.0272C23.5077 70.0273 23.5097 70.0273 23.5117 70.0274C23.5157 70.0275 23.5202 70.0276 23.5252 70.0278C23.535 70.028 23.5466 70.0283 23.56 70.0287C23.5866 70.0294 23.6201 70.0303 23.6602 70.0313C23.7403 70.0332 23.8469 70.0357 23.9776 70.0384C24.2388 70.0437 24.5984 70.0498 25.0379 70.0544C25.912 70.0635 27.1273 70.0667 28.53 70.0437C31.1461 70.0008 35.1462 69.8584 38.8997 69.3203L36.0615 49.5227L33.2233 29.7251C32.0028 29.9001 30.0083 30.014 27.8734 30.0491C26.9006 30.0651 26.0512 30.0627 25.4546 30.0565C25.1587 30.0534 24.9314 30.0495 24.7896 30.0466C24.7188 30.0452 24.6698 30.044 24.6447 30.0434C24.6322 30.0431 24.6257 30.0429 24.6255 30.0429C24.6254 30.0429 24.6269 30.0429 24.6299 30.043C24.6315 30.0431 24.6334 30.0431 24.6358 30.0432C24.637 30.0432 24.6382 30.0433 24.6396 30.0433C24.6403 30.0433 24.6414 30.0433 24.6418 30.0434C24.6429 30.0434 24.6441 30.0434 24.0725 50.0352ZM36.0615 49.5227L38.8997 69.3203C42.6464 68.7832 46.7095 67.7568 49.3373 67.0464C50.7592 66.662 51.9961 66.305 52.8831 66.0425C53.329 65.9106 53.6925 65.8007 53.9538 65.721C54.0846 65.681 54.1902 65.6485 54.2682 65.6244C54.3072 65.6124 54.3393 65.6024 54.3642 65.5946C54.3767 65.5908 54.3874 65.5874 54.3962 65.5847C54.4006 65.5833 54.4046 65.5821 54.4081 65.581C54.4099 65.5804 54.4115 65.5799 54.413 65.5794C54.4138 65.5792 54.4148 65.5789 54.4152 65.5787C54.4162 65.5784 54.4172 65.5781 48.4433 46.4911C42.4694 27.4042 42.4704 27.4039 42.4713 27.4036C42.4715 27.4035 42.4724 27.4032 42.473 27.4031C42.474 27.4027 42.475 27.4024 42.4758 27.4022C42.4775 27.4016 42.4788 27.4012 42.4797 27.401C42.4814 27.4004 42.4813 27.4004 42.4796 27.401C42.4762 27.402 42.4661 27.4052 42.4497 27.4103C42.4167 27.4205 42.3583 27.4385 42.2768 27.4633C42.1135 27.5132 41.8595 27.59 41.5332 27.6866C40.8758 27.8811 39.9499 28.1483 38.8981 28.4326C36.5785 29.0597 34.4507 29.5492 33.2233 29.7251L36.0615 49.5227ZM50.2363 29.8994C41.1149 12.1006 41.1154 12.1003 41.116 12.1C41.1162 12.0999 41.1167 12.0996 41.117 12.0995C41.1176 12.0992 41.1181 12.0989 41.1185 12.0987C41.1194 12.0982 41.1199 12.098 41.1199 12.098C41.1201 12.0979 41.1188 12.0986 41.116 12.1C41.1104 12.1029 41.0988 12.1087 41.0817 12.1175C41.0474 12.135 40.9906 12.1638 40.9135 12.2029C40.7591 12.2811 40.524 12.3997 40.2247 12.5491C39.6232 12.8495 38.7776 13.2669 37.8153 13.7284C35.7499 14.7189 33.6667 15.6611 32.3094 16.1789L39.4386 34.8651L46.5677 53.5513C49.5469 52.4147 52.8626 50.8741 55.112 49.7953C56.307 49.2222 57.3478 48.7084 58.0932 48.3362C58.4675 48.1493 58.7711 47.9963 58.9869 47.8869C59.0949 47.8322 59.1813 47.7884 59.2437 47.7565C59.2749 47.7406 59.3002 47.7277 59.3193 47.7179C59.3289 47.7131 59.3369 47.709 59.3433 47.7057C59.3465 47.704 59.3493 47.7026 59.3518 47.7014C59.353 47.7007 59.3541 47.7002 59.3551 47.6997C59.3556 47.6994 59.3563 47.699 59.3565 47.6989C59.3572 47.6986 59.3578 47.6983 50.2363 29.8994ZM39.4386 34.8651L32.3094 16.1789C28.5555 17.6111 27.056 18.1023 23.7934 18.8177L28.0772 38.3535L32.361 57.8894C38.1656 56.6166 41.6487 55.428 46.5677 53.5513L39.4386 34.8651Z" fill="white" mask="url(#path-3-inside-2_250_6955)"/>
<mask id="path-5-inside-3_250_6955" fill="white">
<path d="M11.7421 19.5526C11.7421 19.5526 12.4234 25.0572 13.2157 28.514C14.2554 33.051 15.1203 35.5412 16.8184 39.874C18.5164 44.2068 21.8926 50.6543 21.8926 50.6543L5.28403 49.0187C5.28403 49.0187 2.89102 41.6123 2.12783 36.6308C1.36464 31.6494 1.49447 24.6122 1.49447 24.6122L11.7421 19.5526Z"/>
</mask>
<path d="M13.2157 28.514L-6.27894 32.9817L-6.27894 32.9817L13.2157 28.514ZM11.7421 19.5526L31.5906 17.0957L28.132 -10.8444L2.88787 1.61932L11.7421 19.5526ZM1.49447 24.6122L-7.35973 6.67886L-18.2775 12.0693L-18.5021 24.2432L1.49447 24.6122ZM5.28403 49.0187L-13.7472 55.1677L-9.71808 67.638L3.32392 68.9224L5.28403 49.0187ZM21.8926 50.6543L19.9325 70.558L56.7917 74.1879L39.6105 41.3766L21.8926 50.6543ZM2.12783 36.6308L-17.6415 39.6596L-17.6415 39.6596L2.12783 36.6308ZM16.8184 39.874L-1.80267 47.1717L-1.80267 47.1717L16.8184 39.874ZM13.2157 28.514L32.7103 24.0463C32.4956 23.1097 32.2188 21.5038 31.9635 19.7901C31.8466 19.0054 31.7506 18.3103 31.6843 17.8149C31.6514 17.5687 31.6263 17.3759 31.6103 17.2506C31.6022 17.188 31.5965 17.1426 31.5931 17.1161C31.5915 17.1029 31.5904 17.0944 31.59 17.0909C31.5898 17.0892 31.5897 17.0887 31.5898 17.0894C31.5899 17.0898 31.5899 17.0905 31.5901 17.0916C31.5901 17.0921 31.5902 17.0927 31.5903 17.0934C31.5903 17.0937 31.5904 17.0943 31.5904 17.0945C31.5905 17.095 31.5906 17.0957 11.7421 19.5526C-8.10644 22.0096 -8.10636 22.0102 -8.10628 22.0109C-8.10625 22.0112 -8.10616 22.0119 -8.1061 22.0124C-8.10597 22.0134 -8.10583 22.0145 -8.10569 22.0157C-8.10539 22.018 -8.10506 22.0207 -8.10468 22.0238C-8.10392 22.0299 -8.10299 22.0374 -8.1019 22.0461C-8.0997 22.0637 -8.09684 22.0865 -8.09332 22.1145C-8.08629 22.1703 -8.07663 22.2465 -8.06448 22.3412C-8.0402 22.5304 -8.00583 22.7946 -7.96251 23.1185C-7.87626 23.7632 -7.7524 24.6603 -7.59992 25.6839C-7.31646 27.5866 -6.8565 30.4615 -6.27894 32.9817L13.2157 28.514ZM11.7421 19.5526L2.88787 1.61932L-7.35973 6.67886L1.49447 24.6122L10.3487 42.5455L20.5963 37.4859L11.7421 19.5526ZM5.28403 49.0187L3.32392 68.9224L19.9325 70.558L21.8926 50.6543L23.8527 30.7506L7.24414 29.115L5.28403 49.0187ZM1.49447 24.6122C-18.5021 24.2432 -18.5021 24.2445 -18.5022 24.2457C-18.5022 24.2461 -18.5022 24.2474 -18.5022 24.2483C-18.5023 24.2501 -18.5023 24.252 -18.5023 24.2541C-18.5024 24.2581 -18.5025 24.2626 -18.5026 24.2675C-18.5027 24.2774 -18.5029 24.289 -18.5032 24.3023C-18.5036 24.329 -18.5041 24.3625 -18.5047 24.4026C-18.5059 24.4828 -18.5072 24.5895 -18.5086 24.7205C-18.5112 24.9822 -18.5137 25.3425 -18.5139 25.7829C-18.5142 26.6588 -18.5052 27.8765 -18.4681 29.2817C-18.3988 31.9036 -18.2163 35.9079 -17.6415 39.6596L2.12783 36.6308L21.8972 33.602C21.7088 32.3723 21.5746 30.3672 21.518 28.2251C21.4922 27.2484 21.4859 26.3954 21.4861 25.7962C21.4862 25.499 21.4879 25.2707 21.4893 25.128C21.4901 25.0568 21.4907 25.0075 21.4911 24.9822C21.4913 24.9696 21.4914 24.963 21.4914 24.9627C21.4914 24.9625 21.4914 24.964 21.4913 24.967C21.4913 24.9686 21.4913 24.9705 21.4912 24.9728C21.4912 24.974 21.4912 24.9753 21.4911 24.9766C21.4911 24.9773 21.4911 24.9784 21.4911 24.9788C21.4911 24.9799 21.4911 24.9811 1.49447 24.6122ZM2.12783 36.6308L-17.6415 39.6596C-17.0678 43.4045 -16.0021 47.4638 -15.2654 50.0915C-14.867 51.5127 -14.4978 52.7489 -14.2266 53.6353C-14.0903 54.0808 -13.9768 54.4441 -13.8945 54.7051C-13.8534 54.8357 -13.8198 54.9412 -13.795 55.019C-13.7825 55.0579 -13.7723 55.09 -13.7643 55.1149C-13.7603 55.1273 -13.7568 55.1379 -13.754 55.1468C-13.7526 55.1512 -13.7513 55.1551 -13.7502 55.1586C-13.7496 55.1604 -13.7491 55.162 -13.7486 55.1635C-13.7484 55.1643 -13.748 55.1653 -13.7479 55.1657C-13.7476 55.1667 -13.7472 55.1677 5.28403 49.0187C24.3153 42.8697 24.3156 42.8706 24.3159 42.8715C24.316 42.8718 24.3163 42.8727 24.3165 42.8732C24.3168 42.8743 24.3171 42.8752 24.3174 42.8761C24.3179 42.8778 24.3183 42.879 24.3186 42.8799C24.3191 42.8815 24.3191 42.8815 24.3186 42.8797C24.3174 42.8763 24.3142 42.8661 24.3089 42.8496C24.2983 42.8165 24.2797 42.758 24.254 42.6764C24.2024 42.5129 24.1229 42.2586 24.023 41.9319C23.8217 41.274 23.5449 40.3472 23.2497 39.2941C22.599 36.9732 22.0866 34.8386 21.8972 33.602L2.12783 36.6308ZM21.8926 50.6543C39.6105 41.3766 39.6108 41.3771 39.6111 41.3777C39.6111 41.3779 39.6114 41.3784 39.6116 41.3787C39.6119 41.3793 39.6122 41.3798 39.6124 41.3802C39.6128 41.3811 39.6131 41.3815 39.6131 41.3816C39.6132 41.3818 39.6125 41.3804 39.611 41.3776C39.6081 41.372 39.6021 41.3604 39.5931 41.3433C39.5753 41.309 39.5458 41.2523 39.5059 41.1753C39.4261 41.021 39.3051 40.7863 39.1526 40.4874C38.846 39.8868 38.4199 39.0425 37.9485 38.0813C36.937 36.0193 35.9725 33.9364 35.4394 32.5763L16.8184 39.874L-1.80267 47.1717C-0.637678 50.1443 0.934848 53.4516 2.03603 55.6966C2.62088 56.8889 3.14493 57.9272 3.52447 58.6709C3.71499 59.0442 3.87104 59.3471 3.98246 59.5623C4.03822 59.67 4.08294 59.7561 4.11536 59.8184C4.13158 59.8495 4.14473 59.8747 4.15467 59.8937C4.15964 59.9033 4.1638 59.9112 4.16714 59.9176C4.16882 59.9208 4.17028 59.9236 4.17154 59.926C4.17217 59.9272 4.17274 59.9283 4.17327 59.9293C4.17353 59.9298 4.17389 59.9305 4.17402 59.9307C4.17436 59.9314 4.17469 59.932 21.8926 50.6543ZM16.8184 39.874L35.4394 32.5763C33.9684 28.8228 33.4602 27.3184 32.7103 24.0463L13.2157 28.514L-6.27894 32.9817C-4.94931 38.7835 -3.7277 42.2597 -1.80267 47.1717L16.8184 39.874Z" fill="white" mask="url(#path-5-inside-3_250_6955)"/>
<mask id="path-7-inside-4_250_6955" fill="white">
<path d="M32.3343 11.219C32.3343 11.219 26.845 12.0141 23.4053 12.8777C18.8908 14.0111 16.4189 14.9273 12.1222 16.7146C7.82553 18.5019 1.44922 22.0107 1.44922 22.0107L2.74089 5.37192C2.74089 5.37192 10.0962 2.8262 15.0608 1.96012C20.0254 1.09404 27.0638 1.07826 27.0638 1.07826L32.3343 11.219Z"/>
</mask>
<path d="M23.4053 12.8777L18.5353 -6.52035L18.5353 -6.52035L23.4053 12.8777ZM32.3343 11.219L35.2013 31.0124L63.0639 26.9766L50.0806 1.99571L32.3343 11.219ZM27.0638 1.07826L44.8101 -8.14503L39.195 -18.949L27.019 -18.9217L27.0638 1.07826ZM2.74089 5.37192L-3.8005 -13.5281L-16.1848 -9.24181L-17.1991 3.82397L2.74089 5.37192ZM1.44922 22.0107L-18.4908 20.4628L-21.3574 57.3892L11.0915 39.5329L1.44922 22.0107ZM15.0608 1.96012L11.6237 -17.7423L11.6237 -17.7423L15.0608 1.96012ZM12.1222 16.7146L4.44089 -1.75148L4.44089 -1.75148L12.1222 16.7146ZM23.4053 12.8777L28.2753 32.2757C29.2073 32.0417 30.8071 31.7317 32.5151 31.441C33.2972 31.3079 33.9902 31.1976 34.4841 31.121C34.7296 31.083 34.9219 31.054 35.0468 31.0353C35.1092 31.026 35.1545 31.0193 35.1809 31.0154C35.1941 31.0135 35.2026 31.0123 35.206 31.0117C35.2078 31.0115 35.2083 31.0114 35.2075 31.0115C35.2071 31.0116 35.2064 31.0117 35.2054 31.0118C35.2049 31.0119 35.2043 31.012 35.2036 31.0121C35.2032 31.0122 35.2027 31.0122 35.2025 31.0123C35.2019 31.0123 35.2013 31.0124 32.3343 11.219C29.4672 -8.57443 29.4666 -8.57434 29.4659 -8.57424C29.4656 -8.57421 29.4649 -8.5741 29.4644 -8.57403C29.4634 -8.57388 29.4623 -8.57373 29.4612 -8.57355C29.4588 -8.57321 29.4561 -8.57282 29.453 -8.57238C29.447 -8.57149 29.4395 -8.57041 29.4308 -8.56913C29.4133 -8.56658 29.3905 -8.56324 29.3626 -8.55915C29.3069 -8.55096 29.2309 -8.53973 29.1365 -8.52562C28.9478 -8.49743 28.6844 -8.45761 28.3615 -8.40759C27.7187 -8.30803 26.8244 -8.16563 25.8042 -7.99201C23.9077 -7.66925 21.043 -7.14992 18.5353 -6.52035L23.4053 12.8777ZM32.3343 11.219L50.0806 1.99571L44.8101 -8.14503L27.0638 1.07826L9.31752 10.3016L14.588 20.4423L32.3343 11.219ZM2.74089 5.37192L-17.1991 3.82397L-18.4908 20.4628L1.44922 22.0107L21.3892 23.5587L22.6809 6.91986L2.74089 5.37192ZM27.0638 1.07826C27.019 -18.9217 27.0178 -18.9217 27.0165 -18.9217C27.0161 -18.9217 27.0148 -18.9217 27.0139 -18.9217C27.0121 -18.9217 27.0102 -18.9217 27.0082 -18.9217C27.0041 -18.9216 26.9996 -18.9216 26.9947 -18.9216C26.9848 -18.9216 26.9732 -18.9215 26.9599 -18.9215C26.9333 -18.9214 26.8997 -18.9212 26.8596 -18.921C26.7794 -18.9205 26.6727 -18.9196 26.5417 -18.9183C26.28 -18.9155 25.9197 -18.9106 25.4794 -18.9016C24.6037 -18.8838 23.3864 -18.8496 21.9823 -18.7834C19.3624 -18.6599 15.3628 -18.3946 11.6237 -17.7423L15.0608 1.96012L18.4979 21.6626C19.7235 21.4488 21.7254 21.2731 23.8658 21.1722C24.8419 21.1262 25.6945 21.1023 26.2935 21.0901C26.5907 21.0841 26.8191 21.081 26.9617 21.0795C27.0329 21.0788 27.0822 21.0784 27.1075 21.0783C27.1201 21.0782 27.1267 21.0782 27.127 21.0782C27.1272 21.0782 27.1257 21.0782 27.1227 21.0782C27.1212 21.0782 27.1192 21.0782 27.1169 21.0782C27.1157 21.0782 27.1145 21.0782 27.1131 21.0782C27.1124 21.0782 27.1113 21.0782 27.1109 21.0782C27.1098 21.0782 27.1086 21.0782 27.0638 1.07826ZM15.0608 1.96012L11.6237 -17.7423C7.89146 -17.0912 3.85506 -15.9418 1.24316 -15.151C-0.169484 -14.7232 -1.39773 -14.3285 -2.27835 -14.039C-2.72098 -13.8935 -3.08178 -13.7726 -3.34101 -13.6849C-3.47078 -13.641 -3.57553 -13.6053 -3.65282 -13.5789C-3.69148 -13.5656 -3.72332 -13.5547 -3.74802 -13.5462C-3.76037 -13.5419 -3.77095 -13.5383 -3.77971 -13.5353C-3.78408 -13.5338 -3.78801 -13.5324 -3.79148 -13.5312C-3.79321 -13.5306 -3.79483 -13.5301 -3.79633 -13.5295C-3.79708 -13.5293 -3.79813 -13.5289 -3.7985 -13.5288C-3.79952 -13.5284 -3.8005 -13.5281 2.74089 5.37192C9.28228 24.2719 9.28135 24.2722 9.28045 24.2726C9.28019 24.2726 9.27931 24.2729 9.27879 24.2731C9.27773 24.2735 9.27678 24.2738 9.27594 24.2741C9.27426 24.2747 9.27301 24.2751 9.27219 24.2754C9.27054 24.276 9.27059 24.276 9.2723 24.2754C9.27574 24.2742 9.28581 24.2707 9.30223 24.2651C9.33511 24.2538 9.39323 24.234 9.47428 24.2066C9.63669 24.1517 9.88931 24.0669 10.2138 23.9603C10.8675 23.7454 11.7883 23.4495 12.8351 23.1325C15.142 22.434 17.2656 21.8775 18.4979 21.6626L15.0608 1.96012ZM1.44922 22.0107C11.0915 39.5329 11.0909 39.5332 11.0904 39.5335C11.0902 39.5336 11.0897 39.5339 11.0894 39.5341C11.0888 39.5344 11.0883 39.5347 11.0879 39.5349C11.087 39.5354 11.0866 39.5356 11.0865 39.5357C11.0864 39.5357 11.0877 39.535 11.0905 39.5335C11.096 39.5304 11.1074 39.5242 11.1244 39.5149C11.1583 39.4963 11.2144 39.4657 11.2906 39.4242C11.4432 39.3412 11.6753 39.2154 11.971 39.0567C12.5651 38.7378 13.4005 38.2943 14.3517 37.8031C16.3923 36.7492 18.4548 35.7418 19.8036 35.1807L12.1222 16.7146L4.44089 -1.75148C1.493 -0.525244 -1.78101 1.11536 -4.00274 2.26275C-5.18272 2.87214 -6.21001 3.41756 -6.94565 3.8124C-7.31492 4.0106 -7.6145 4.17289 -7.8274 4.28874C-7.93394 4.34671 -8.01905 4.3932 -8.08064 4.42691C-8.11143 4.44376 -8.13637 4.45744 -8.15519 4.46776C-8.1646 4.47293 -8.17248 4.47726 -8.1788 4.48073C-8.18196 4.48247 -8.18473 4.48399 -8.18711 4.4853C-8.1883 4.48595 -8.18939 4.48655 -8.19038 4.4871C-8.19087 4.48737 -8.19154 4.48774 -8.19179 4.48787C-8.19243 4.48823 -8.19305 4.48857 1.44922 22.0107ZM12.1222 16.7146L19.8036 35.1807C23.5259 33.6323 25.0194 33.0931 28.2753 32.2757L23.4053 12.8777L18.5353 -6.52035C12.7622 -5.07097 9.31199 -3.77771 4.44089 -1.75148L12.1222 16.7146Z" fill="white" mask="url(#path-7-inside-4_250_6955)"/>
</svg>
